# xmcd
#
# Track frame offsets:
#	150
#	19085
#	35999
#	51940
#	69606
#	86095
#	101839
#	119194
#	133499
#
# Disc length: 1943 seconds
#
# Revision: 1
# Processed by: cddbd v1.5.2PL0 Copyright (c) Steve Scherf et al.
# Submitted via: audiograbber 1.83.01
#
DISCID=91079509
DTITLE=The Disc - Volume 12
DYEAR=2002
DGENRE=Gospel
TTITLE0=Debbie White - Chose Life
TTITLE1=Peter Lewis Whitebird - That Man Above
TTITLE2=Travis Spratt - Daddy Had A Father
TTITLE3=Billy W. Chernoff - The Devils Gold
TTITLE4=John Steer - Touch Of Mama's Hand
TTITLE5=Sandi Kay and New Hickory - Where There Ain't No Time
TTITLE6=Ray Perryman - Calvary
TTITLE7=Carson Howard - You Don't Have To Be Lonely
TTITLE8=Mary Yates Falor - His Hands
EXTD=
EXTT0=
EXTT1=
EXTT2=
EXTT3=
EXTT4=
EXTT5=
EXTT6=
EXTT7=
EXTT8=
PLAYORDER=
